ffmpeg started on 2025-07-16 at 16:27:42
Report written to "D:\Convert\FFMetrics\reports\ssim_report-6.txt"
Log level: 32
Command line:
ffmpeg -hide_banner -nostdin -i "G:\\\xc0\xed\xe8\xec\xe5\\Shiza\\\xcb\xe5\xe3\xe5\xed\xe4\xe0 \xee \xc3\xf0\xe0\xed\xea\xf0\xe5\xf1\xf2\xe5\\[SHIZA Project] Grancrest Senki TV [10] [nDrOiDze & Lizaveta]_HEVC.mkv" -i "G:\\\xc0\xed\xe8\xec\xe5\\Shiza\\\xcb\xe5\xe3\xe5\xed\xe4\xe0 \xee \xc3\xf0\xe0\xed\xea\xf0\xe5\xf1\xf2\xe5\\[SHIZA Project] Grancrest Senki TV [10] [nDrOiDze & Lizaveta].mkv" -lavfi "[0:v]settb=AVTB,setpts=PTS-STARTPTS,format=pix_fmts=yuv420p10,fps=24000/1001,scale=1280:720:flags=bicubic[main];[1:v]settb=AVTB,setpts=PTS-STARTPTS,format=pix_fmts=yuv420p,fps=24000/1001,scale=1280:720:flags=bicubic[ref];[main][ref]ssim=eof_action=endall:stats_file='D\\:/Convert/FFMetrics/logs/ssim_logfile-6.txt'" -f null -
Input #0, matroska,webm, from 'G:\Аниме\Shiza\Легенда о Гранкресте\[SHIZA Project] Grancrest Senki TV [10] [nDrOiDze & Lizaveta]_HEVC.mkv':
  Metadata:
    ENCODER         : Lavf61.7.100
  Duration: 00:23:40.07, start: -0.001000, bitrate: 827 kb/s
  Stream #0:0: Video: hevc (Main 10), yuv420p10le(tv, bt709, progressive), 1280x720 [SAR 1:1 DAR 16:9], 23.81 fps, 23.81 tbr, 1k tbn (default)
      Metadata:
        title           : [SHIZA Project] Grancrest Senki TV [WEBRip]
        ENCODER         : Lavc61.19.100 libx265
        BPS             : 629217
        DURATION        : 00:23:40.062000000
        NUMBER_OF_FRAMES: 34048
        NUMBER_OF_BYTES : 111691064
        _STATISTICS_WRITING_APP: mkvpropedit v66.0.0 ('Josie') 64-bit
        _STATISTICS_WRITING_DATE_UTC: 2025-07-14 09:24:49
        _STATISTICS_TAGS: BPS DURATION NUMBER_OF_FRAMES NUMBER_OF_BYTES
  Stream #0:1(rus): Audio: aac (LC), 48000 Hz, stereo, fltp (default)
      Metadata:
        title           : nDrOiDze & Lizaveta
        ENCODER         : Lavc61.19.100 aac
        BPS             : 194312
        DURATION        : 00:23:40.031000000
        NUMBER_OF_FRAMES: 66565
        NUMBER_OF_BYTES : 34491165
        _STATISTICS_WRITING_APP: mkvpropedit v66.0.0 ('Josie') 64-bit
        _STATISTICS_WRITING_DATE_UTC: 2025-07-14 09:24:49
        _STATISTICS_TAGS: BPS DURATION NUMBER_OF_FRAMES NUMBER_OF_BYTES
Input #1, matroska,webm, from 'G:\Аниме\Shiza\Легенда о Гранкресте\[SHIZA Project] Grancrest Senki TV [10] [nDrOiDze & Lizaveta].mkv':
  Metadata:
    encoder         : libebml v1.3.5 + libmatroska v1.4.5
    creation_time   : 2018-03-16T09:05:07.000000Z
  Duration: 00:23:40.05, start: 0.000000, bitrate: 1969 kb/s
  Stream #1:0: Video: h264 (High), yuv420p(progressive), 1280x720 [SAR 1:1 DAR 16:9], 23.81 fps, 23.81 tbr, 1k tbn (default)
      Metadata:
        title           : [SHIZA Project] Grancrest Senki TV [WEBRip]
        BPS             : 1773529
        BPS-eng         : 1773529
        DURATION        : 00:23:40.045000000
        DURATION-eng    : 00:23:40.045000000
        NUMBER_OF_FRAMES: 34048
        NUMBER_OF_FRAMES-eng: 34048
        NUMBER_OF_BYTES : 314811548
        NUMBER_OF_BYTES-eng: 314811548
        _STATISTICS_WRITING_APP: mkvmerge v15.0.0 ('Duel with the Devil') 64-bit
        _STATISTICS_WRITING_APP-eng: mkvmerge v15.0.0 ('Duel with the Devil') 64-bit
        _STATISTICS_WRITING_DATE_UTC: 2018-03-16 09:05:07
        _STATISTICS_WRITING_DATE_UTC-eng: 2018-03-16 09:05:07
        _STATISTICS_TAGS: BPS DURATION NUMBER_OF_FRAMES NUMBER_OF_BYTES
        _STATISTICS_TAGS-eng: BPS DURATION NUMBER_OF_FRAMES NUMBER_OF_BYTES
  Stream #1:1(rus): Audio: aac (LC), 48000 Hz, stereo, fltp (default)
      Metadata:
        title           : nDrOiDze & Lizaveta
        BPS             : 192000
        BPS-eng         : 192000
        DURATION        : 00:23:40.032000000
        DURATION-eng    : 00:23:40.032000000
        NUMBER_OF_FRAMES: 66564
        NUMBER_OF_FRAMES-eng: 66564
        NUMBER_OF_BYTES : 34080892
        NUMBER_OF_BYTES-eng: 34080892
        _STATISTICS_WRITING_APP: mkvmerge v15.0.0 ('Duel with the Devil') 64-bit
        _STATISTICS_WRITING_APP-eng: mkvmerge v15.0.0 ('Duel with the Devil') 64-bit
        _STATISTICS_WRITING_DATE_UTC: 2018-03-16 09:05:07
        _STATISTICS_WRITING_DATE_UTC-eng: 2018-03-16 09:05:07
        _STATISTICS_TAGS: BPS DURATION NUMBER_OF_FRAMES NUMBER_OF_BYTES
        _STATISTICS_TAGS-eng: BPS DURATION NUMBER_OF_FRAMES NUMBER_OF_BYTES
  Stream #1:2: Attachment: ttf
      Metadata:
        filename        : OpenSans-Semibold.ttf
        mimetype        : application/x-truetype-font
Stream mapping:
  Stream #0:0 (hevc) -> settb:default
  Stream #1:0 (h264) -> settb:default
  ssim:default -> Stream #0:0 (wrapped_avframe)
  Stream #0:1 -> #0:1 (aac (native) -> pcm_s16le (native))
[swscaler @ 000002255772b140] No accelerated colorspace conversion found from yuv420p to bgr48le.
[swscaler @ 0000022557848b80] No accelerated colorspace conversion found from yuv420p to bgr48le.
[swscaler @ 0000022557a13f00] No accelerated colorspace conversion found from yuv420p to bgr48le.
[swscaler @ 0000022557a965c0] No accelerated colorspace conversion found from yuv420p to bgr48le.
[swscaler @ 0000022557b7a800] No accelerated colorspace conversion found from yuv420p to bgr48le.
[swscaler @ 0000022557c7ca40] No accelerated colorspace conversion found from yuv420p to bgr48le.
[swscaler @ 0000022557dc54c0] No accelerated colorspace conversion found from yuv420p to bgr48le.
[swscaler @ 0000022557ed57c0] No accelerated colorspace conversion found from yuv420p to bgr48le.
[swscaler @ 0000022558091b00] No accelerated colorspace conversion found from yuv420p to bgr48le.
[swscaler @ 0000022558157b80] No accelerated colorspace conversion found from yuv420p to bgr48le.
[swscaler @ 00000225581ed040] No accelerated colorspace conversion found from yuv420p to bgr48le.
[swscaler @ 000002255824f040] No accelerated colorspace conversion found from yuv420p to bgr48le.
[swscaler @ 00000225582aa040] No accelerated colorspace conversion found from yuv420p to bgr48le.
[swscaler @ 0000022558336040] No accelerated colorspace conversion found from yuv420p to bgr48le.
[swscaler @ 000002255ce72040] No accelerated colorspace conversion found from yuv420p to bgr48le.
[swscaler @ 000002255cedf040] No accelerated colorspace conversion found from yuv420p to bgr48le.
Output #0, null, to 'pipe:':
  Metadata:
    encoder         : Lavf61.7.100
  Stream #0:0: Video: wrapped_avframe, yuv420p10le(tv, bt709, progressive), 1280x720 [SAR 1:1 DAR 16:9], q=2-31, 200 kb/s, 23.98 fps, 23.98 tbn
      Metadata:
        encoder         : Lavc61.19.100 wrapped_avframe
  Stream #0:1(rus): Audio: pcm_s16le, 48000 Hz, stereo, s16, 1536 kb/s (default)
      Metadata:
        title           : nDrOiDze & Lizaveta
        _STATISTICS_TAGS: BPS DURATION NUMBER_OF_FRAMES NUMBER_OF_BYTES
        BPS             : 194312
        DURATION        : 00:23:40.031000000
        NUMBER_OF_FRAMES: 66565
        NUMBER_OF_BYTES : 34491165
        _STATISTICS_WRITING_APP: mkvpropedit v66.0.0 ('Josie') 64-bit
        _STATISTICS_WRITING_DATE_UTC: 2025-07-14 09:24:49
        encoder         : Lavc61.19.100 pcm_s16le
frame=   71 fps=0.0 q=-0.0 size=N/A time=00:00:02.96 bitrate=N/A speed=5.76x    frame=  181 fps=177 q=-0.0 size=N/A time=00:00:07.54 bitrate=N/A speed= 7.4x    frame=  279 fps=181 q=-0.0 size=N/A time=00:00:11.63 bitrate=N/A speed=7.55x    frame=  378 fps=183 q=-0.0 size=N/A time=00:00:15.76 bitrate=N/A speed=7.65x    frame=  474 fps=184 q=-0.0 size=N/A time=00:00:19.76 bitrate=N/A speed=7.69x    frame=  576 fps=186 q=-0.0 size=N/A time=00:00:24.02 bitrate=N/A speed=7.77x    frame=  672 fps=187 q=-0.0 size=N/A time=00:00:28.02 bitrate=N/A speed=7.78x    frame=  775 fps=188 q=-0.0 size=N/A time=00:00:32.32 bitrate=N/A speed=7.84x    frame=  872 fps=188 q=-0.0 size=N/A time=00:00:36.36 bitrate=N/A speed=7.85x    frame=  971 fps=188 q=-0.0 size=N/A time=00:00:40.49 bitrate=N/A speed=7.86x    frame= 1070 fps=189 q=-0.0 size=N/A time=00:00:44.62 bitrate=N/A speed=7.88x    frame= 1170 fps=189 q=-0.0 size=N/A time=00:00:48.79 bitrate=N/A speed=7.89x    frame= 1268 fps=189 q=-0.0 size=N/A time=00:00:52.88 bitrate=N/A speed=7.89x    frame= 1361 fps=189 q=-0.0 size=N/A time=00:00:56.76 bitrate=N/A speed=7.87x    frame= 1467 fps=190 q=-0.0 size=N/A time=00:01:01.18 bitrate=N/A speed=7.91x    frame= 1556 fps=189 q=-0.0 size=N/A time=00:01:04.89 bitrate=N/A speed=7.87x    frame= 1659 fps=189 q=-0.0 size=N/A time=00:01:09.19 bitrate=N/A speed= 7.9x    frame= 1750 fps=189 q=-0.0 size=N/A time=00:01:12.98 bitrate=N/A speed=7.87x    frame= 1846 fps=189 q=-0.0 size=N/A time=00:01:16.99 bitrate=N/A speed=7.86x    frame= 1933 fps=187 q=-0.0 size=N/A time=00:01:20.62 bitrate=N/A speed=7.82x    frame= 2036 fps=188 q=-0.0 size=N/A time=00:01:24.91 bitrate=N/A speed=7.85x    frame= 2134 fps=188 q=-0.0 size=N/A time=00:01:29.00 bitrate=N/A speed=7.84x    frame= 2225 fps=188 q=-0.0 size=N/A time=00:01:32.80 bitrate=N/A speed=7.83x    frame= 2321 fps=188 q=-0.0 size=N/A time=00:01:36.80 bitrate=N/A speed=7.82x    frame= 2415 fps=187 q=-0.0 size=N/A time=00:01:40.72 bitrate=N/A speed=7.82x    frame= 2512 fps=187 q=-0.0 size=N/A time=00:01:44.77 bitrate=N/A speed=7.81x    frame= 2605 fps=187 q=-0.0 size=N/A time=00:01:48.65 bitrate=N/A speed=7.81x    frame= 2698 fps=187 q=-0.0 size=N/A time=00:01:52.52 bitrate=N/A speed=7.79x    frame= 2788 fps=187 q=-0.0 size=N/A time=00:01:56.28 bitrate=N/A speed=7.78x    frame= 2879 fps=186 q=-0.0 size=N/A time=00:02:00.07 bitrate=N/A speed=7.76x    frame= 2969 fps=186 q=-0.0 size=N/A time=00:02:03.83 bitrate=N/A speed=7.75x    frame= 3068 fps=186 q=-0.0 size=N/A time=00:02:07.96 bitrate=N/A speed=7.76x    frame= 3167 fps=186 q=-0.0 size=N/A time=00:02:12.09 bitrate=N/A speed=7.76x    frame= 3263 fps=186 q=-0.0 size=N/A time=00:02:16.09 bitrate=N/A speed=7.76x    frame= 3354 fps=186 q=-0.0 size=N/A time=00:02:19.88 bitrate=N/A speed=7.75x    frame= 3456 fps=186 q=-0.0 size=N/A time=00:02:24.14 bitrate=N/A speed=7.77x    frame= 3554 fps=186 q=-0.0 size=N/A time=00:02:28.23 bitrate=N/A speed=7.77x    frame= 3652 fps=186 q=-0.0 size=N/A time=00:02:32.31 bitrate=N/A speed=7.78x    frame= 3754 fps=187 q=-0.0 size=N/A time=00:02:36.57 bitrate=N/A speed=7.79x    frame= 3852 fps=187 q=-0.0 size=N/A time=00:02:40.66 bitrate=N/A speed=7.79x    frame= 3949 fps=187 q=-0.0 size=N/A time=00:02:44.70 bitrate=N/A speed=7.79x    frame= 4044 fps=187 q=-0.0 size=N/A time=00:02:48.66 bitrate=N/A speed=7.79x    frame= 4144 fps=187 q=-0.0 size=N/A time=00:02:52.83 bitrate=N/A speed= 7.8x    frame= 4241 fps=187 q=-0.0 size=N/A time=00:02:56.88 bitrate=N/A speed= 7.8x    frame= 4346 fps=187 q=-0.0 size=N/A time=00:03:01.26 bitrate=N/A speed=7.81x    frame= 4441 fps=187 q=-0.0 size=N/A time=00:03:05.22 bitrate=N/A speed=7.81x    frame= 4537 fps=187 q=-0.0 size=N/A time=00:03:09.23 bitrate=N/A speed=7.81x    frame= 4633 fps=187 q=-0.0 size=N/A time=00:03:13.23 bitrate=N/A speed=7.81x    frame= 4726 fps=187 q=-0.0 size=N/A time=00:03:17.11 bitrate=N/A speed= 7.8x    frame= 4813 fps=187 q=-0.0 size=N/A time=00:03:20.74 bitrate=N/A speed=7.79x    frame= 4914 fps=187 q=-0.0 size=N/A time=00:03:24.95 bitrate=N/A speed=7.79x    frame= 5000 fps=186 q=-0.0 size=N/A time=00:03:28.54 bitrate=N/A speed=7.78x    frame= 5112 fps=187 q=-0.0 size=N/A time=00:03:33.21 bitrate=N/A speed= 7.8x    frame= 5210 fps=187 q=-0.0 size=N/A time=00:03:37.30 bitrate=N/A speed= 7.8x    frame= 5303 fps=187 q=-0.0 size=N/A time=00:03:41.17 bitrate=N/A speed= 7.8x    frame= 5400 fps=187 q=-0.0 size=N/A time=00:03:45.22 bitrate=N/A speed= 7.8x    frame= 5502 fps=187 q=-0.0 size=N/A time=00:03:49.47 bitrate=N/A speed=7.81x    frame= 5603 fps=187 q=-0.0 size=N/A time=00:03:53.69 bitrate=N/A speed=7.82x    frame= 5703 fps=187 q=-0.0 size=N/A time=00:03:57.86 bitrate=N/A speed=7.82x    frame= 5804 fps=188 q=-0.0 size=N/A time=00:04:02.07 bitrate=N/A speed=7.82x    frame= 5902 fps=188 q=-0.0 size=N/A time=00:04:06.16 bitrate=N/A speed=7.83x    frame= 5998 fps=188 q=-0.0 size=N/A time=00:04:10.16 bitrate=N/A speed=7.82x    frame= 6096 fps=188 q=-0.0 size=N/A time=00:04:14.25 bitrate=N/A speed=7.83x    frame= 6185 fps=187 q=-0.0 size=N/A time=00:04:17.96 bitrate=N/A speed=7.82x    frame= 6293 fps=188 q=-0.0 size=N/A time=00:04:22.47 bitrate=N/A speed=7.83x    frame= 6394 fps=188 q=-0.0 size=N/A time=00:04:26.68 bitrate=N/A speed=7.84x    frame= 6490 fps=188 q=-0.0 size=N/A time=00:04:30.68 bitrate=N/A speed=7.84x    frame= 6586 fps=188 q=-0.0 size=N/A time=00:04:34.69 bitrate=N/A speed=7.83x    frame= 6676 fps=188 q=-0.0 size=N/A time=00:04:38.44 bitrate=N/A speed=7.83x    frame= 6778 fps=188 q=-0.0 size=N/A time=00:04:42.69 bitrate=N/A speed=7.83x    frame= 6870 fps=188 q=-0.0 size=N/A time=00:04:46.53 bitrate=N/A speed=7.83x    frame= 6971 fps=188 q=-0.0 size=N/A time=00:04:50.74 bitrate=N/A speed=7.83x    frame= 7068 fps=188 q=-0.0 size=N/A time=00:04:54.79 bitrate=N/A speed=7.83x    frame= 7170 fps=188 q=-0.0 size=N/A time=00:04:59.04 bitrate=N/A speed=7.84x    frame= 7273 fps=188 q=-0.0 size=N/A time=00:05:03.34 bitrate=N/A speed=7.84x    frame= 7374 fps=188 q=-0.0 size=N/A time=00:05:07.55 bitrate=N/A speed=7.85x    frame= 7464 fps=188 q=-0.0 size=N/A time=00:05:11.31 bitrate=N/A speed=7.84x    frame= 7576 fps=188 q=-0.0 size=N/A time=00:05:15.98 bitrate=N/A speed=7.86x    frame= 7676 fps=188 q=-0.0 size=N/A time=00:05:20.15 bitrate=N/A speed=7.86x    frame= 7778 fps=189 q=-0.0 size=N/A time=00:05:24.40 bitrate=N/A speed=7.87x    frame= 7874 fps=189 q=-0.0 size=N/A time=00:05:28.41 bitrate=N/A speed=7.86x    frame= 7970 fps=189 q=-0.0 size=N/A time=00:05:32.41 bitrate=N/A speed=7.86x    frame= 8070 fps=189 q=-0.0 size=N/A time=00:05:36.58 bitrate=N/A speed=7.86x    frame= 8168 fps=189 q=-0.0 size=N/A time=00:05:40.67 bitrate=N/A speed=7.86x    frame= 8259 fps=188 q=-0.0 size=N/A time=00:05:44.46 bitrate=N/A speed=7.86x    frame= 8353 fps=188 q=-0.0 size=N/A time=00:05:48.38 bitrate=N/A speed=7.86x    frame= 8457 fps=189 q=-0.0 size=N/A time=00:05:52.72 bitrate=N/A speed=7.86x    frame= 8557 fps=189 q=-0.0 size=N/A time=00:05:56.89 bitrate=N/A speed=7.87x    frame= 8654 fps=189 q=-0.0 size=N/A time=00:06:00.94 bitrate=N/A speed=7.87x    frame= 8751 fps=189 q=-0.0 size=N/A time=00:06:04.98 bitrate=N/A speed=7.87x    frame= 8841 fps=188 q=-0.0 size=N/A time=00:06:08.74 bitrate=N/A speed=7.86x    frame= 8941 fps=188 q=-0.0 size=N/A time=00:06:12.91 bitrate=N/A speed=7.86x    frame= 9035 fps=188 q=-0.0 size=N/A time=00:06:16.83 bitrate=N/A speed=7.86x    frame= 9137 fps=189 q=-0.0 size=N/A time=00:06:21.08 bitrate=N/A speed=7.86x    frame= 9234 fps=189 q=-0.0 size=N/A time=00:06:25.13 bitrate=N/A speed=7.86x    frame= 9333 fps=189 q=-0.0 size=N/A time=00:06:29.26 bitrate=N/A speed=7.86x    frame= 9431 fps=189 q=-0.0 size=N/A time=00:06:33.35 bitrate=N/A speed=7.87x    frame= 9529 fps=189 q=-0.0 size=N/A time=00:06:37.43 bitrate=N/A speed=7.86x    frame= 9629 fps=189 q=-0.0 size=N/A time=00:06:41.60 bitrate=N/A speed=7.87x    frame= 9729 fps=189 q=-0.0 size=N/A time=00:06:45.78 bitrate=N/A speed=7.87x    frame= 9828 fps=189 q=-0.0 size=N/A time=00:06:49.90 bitrate=N/A speed=7.87x    frame= 9927 fps=189 q=-0.0 size=N/A time=00:06:54.03 bitrate=N/A speed=7.87x    frame=10026 fps=189 q=-0.0 size=N/A time=00:06:58.16 bitrate=N/A speed=7.87x    frame=10124 fps=189 q=-0.0 size=N/A time=00:07:02.25 bitrate=N/A speed=7.87x    frame=10226 fps=189 q=-0.0 size=N/A time=00:07:06.50 bitrate=N/A speed=7.88x    frame=10321 fps=189 q=-0.0 size=N/A time=00:07:10.47 bitrate=N/A speed=7.88x    frame=10425 fps=189 q=-0.0 size=N/A time=00:07:14.80 bitrate=N/A speed=7.88x    frame=10523 fps=189 q=-0.0 size=N/A time=00:07:18.89 bitrate=N/A speed=7.88x    frame=10620 fps=189 q=-0.0 size=N/A time=00:07:22.94 bitrate=N/A speed=7.88x    frame=10714 fps=189 q=-0.0 size=N/A time=00:07:26.86 bitrate=N/A speed=7.88x    frame=10814 fps=189 q=-0.0 size=N/A time=00:07:31.03 bitrate=N/A speed=7.88x    frame=10908 fps=189 q=-0.0 size=N/A time=00:07:34.95 bitrate=N/A speed=7.88x    frame=11012 fps=189 q=-0.0 size=N/A time=00:07:39.29 bitrate=N/A speed=7.88x    frame=11113 fps=189 q=-0.0 size=N/A time=00:07:43.50 bitrate=N/A speed=7.89x    frame=11212 fps=189 q=-0.0 size=N/A time=00:07:47.63 bitrate=N/A speed=7.89x    frame=11311 fps=189 q=-0.0 size=N/A time=00:07:51.76 bitrate=N/A speed=7.89x    frame=11414 fps=189 q=-0.0 size=N/A time=00:07:56.05 bitrate=N/A speed=7.89x    frame=11514 fps=189 q=-0.0 size=N/A time=00:08:00.22 bitrate=N/A speed=7.89x    frame=11612 fps=189 q=-0.0 size=N/A time=00:08:04.31 bitrate=N/A speed=7.89x    frame=11711 fps=189 q=-0.0 size=N/A time=00:08:08.44 bitrate=N/A speed=7.89x    frame=11817 fps=189 q=-0.0 size=N/A time=00:08:12.86 bitrate=N/A speed= 7.9x    frame=11898 fps=189 q=-0.0 size=N/A time=00:08:16.24 bitrate=N/A speed=7.89x    frame=11995 fps=189 q=-0.0 size=N/A time=00:08:20.29 bitrate=N/A speed=7.89x    frame=12095 fps=189 q=-0.0 size=N/A time=00:08:24.46 bitrate=N/A speed=7.89x    frame=12195 fps=189 q=-0.0 size=N/A time=00:08:28.63 bitrate=N/A speed=7.89x    frame=12289 fps=189 q=-0.0 size=N/A time=00:08:32.55 bitrate=N/A speed=7.89x    frame=12386 fps=189 q=-0.0 size=N/A time=00:08:36.59 bitrate=N/A speed=7.89x    frame=12476 fps=189 q=-0.0 size=N/A time=00:08:40.35 bitrate=N/A speed=7.88x    frame=12569 fps=189 q=-0.0 size=N/A time=00:08:44.23 bitrate=N/A speed=7.88x    frame=12670 fps=189 q=-0.0 size=N/A time=00:08:48.44 bitrate=N/A speed=7.88x    frame=12759 fps=189 q=-0.0 size=N/A time=00:08:52.15 bitrate=N/A speed=7.88x    frame=12875 fps=189 q=-0.0 size=N/A time=00:08:56.99 bitrate=N/A speed=7.89x    frame=12975 fps=189 q=-0.0 size=N/A time=00:09:01.16 bitrate=N/A speed=7.89x    frame=13066 fps=189 q=-0.0 size=N/A time=00:09:04.96 bitrate=N/A speed=7.88x    frame=13174 fps=189 q=-0.0 size=N/A time=00:09:09.46 bitrate=N/A speed=7.89x    frame=13274 fps=189 q=-0.0 size=N/A time=00:09:13.63 bitrate=N/A speed=7.89x    frame=13369 fps=189 q=-0.0 size=N/A time=00:09:17.59 bitrate=N/A speed=7.89x    frame=13474 fps=189 q=-0.0 size=N/A time=00:09:21.97 bitrate=N/A speed=7.89x    frame=13565 fps=189 q=-0.0 size=N/A time=00:09:25.77 bitrate=N/A speed=7.89x    frame=13671 fps=189 q=-0.0 size=N/A time=00:09:30.19 bitrate=N/A speed= 7.9x    frame=13769 fps=189 q=-0.0 size=N/A time=00:09:34.28 bitrate=N/A speed= 7.9x    frame=13871 fps=189 q=-0.0 size=N/A time=00:09:38.53 bitrate=N/A speed= 7.9x    frame=13970 fps=189 q=-0.0 size=N/A time=00:09:42.66 bitrate=N/A speed= 7.9x    frame=14066 fps=189 q=-0.0 size=N/A time=00:09:46.66 bitrate=N/A speed= 7.9x    frame=14165 fps=189 q=-0.0 size=N/A time=00:09:50.79 bitrate=N/A speed= 7.9x    frame=14260 fps=189 q=-0.0 size=N/A time=00:09:54.76 bitrate=N/A speed= 7.9x    frame=14353 fps=189 q=-0.0 size=N/A time=00:09:58.63 bitrate=N/A speed=7.89x    frame=14450 fps=189 q=-0.0 size=N/A time=00:10:02.68 bitrate=N/A speed=7.89x    frame=14546 fps=189 q=-0.0 size=N/A time=00:10:06.68 bitrate=N/A speed=7.89x    frame=14644 fps=189 q=-0.0 size=N/A time=00:10:10.77 bitrate=N/A speed=7.89x    frame=14744 fps=189 q=-0.0 size=N/A time=00:10:14.94 bitrate=N/A speed=7.89x    frame=14841 fps=189 q=-0.0 size=N/A time=00:10:18.99 bitrate=N/A speed=7.89x    frame=14941 fps=189 q=-0.0 size=N/A time=00:10:23.16 bitrate=N/A speed=7.89x    frame=15038 fps=189 q=-0.0 size=N/A time=00:10:27.20 bitrate=N/A speed=7.89x    frame=15136 fps=189 q=-0.0 size=N/A time=00:10:31.29 bitrate=N/A speed=7.89x    frame=15237 fps=189 q=-0.0 size=N/A time=00:10:35.50 bitrate=N/A speed= 7.9x    frame=15338 fps=189 q=-0.0 size=N/A time=00:10:39.72 bitrate=N/A speed= 7.9x    frame=15436 fps=189 q=-0.0 size=N/A time=00:10:43.80 bitrate=N/A speed= 7.9x    frame=15539 fps=189 q=-0.0 size=N/A time=00:10:48.10 bitrate=N/A speed= 7.9x    frame=15636 fps=189 q=-0.0 size=N/A time=00:10:52.15 bitrate=N/A speed= 7.9x    frame=15734 fps=189 q=-0.0 size=N/A time=00:10:56.23 bitrate=N/A speed= 7.9x    frame=15837 fps=189 q=-0.0 size=N/A time=00:11:00.53 bitrate=N/A speed= 7.9x    frame=15935 fps=189 q=-0.0 size=N/A time=00:11:04.62 bitrate=N/A speed= 7.9x    frame=16026 fps=189 q=-0.0 size=N/A time=00:11:08.41 bitrate=N/A speed= 7.9x    frame=16124 fps=189 q=-0.0 size=N/A time=00:11:12.50 bitrate=N/A speed= 7.9x    frame=16227 fps=189 q=-0.0 size=N/A time=00:11:16.80 bitrate=N/A speed= 7.9x    frame=16327 fps=190 q=-0.0 size=N/A time=00:11:20.97 bitrate=N/A speed= 7.9x    frame=16422 fps=189 q=-0.0 size=N/A time=00:11:24.93 bitrate=N/A speed= 7.9x    frame=16515 fps=189 q=-0.0 size=N/A time=00:11:28.81 bitrate=N/A speed= 7.9x    frame=16614 fps=189 q=-0.0 size=N/A time=00:11:32.94 bitrate=N/A speed= 7.9x    frame=16719 fps=190 q=-0.0 size=N/A time=00:11:37.32 bitrate=N/A speed= 7.9x    frame=16819 fps=190 q=-0.0 size=N/A time=00:11:41.49 bitrate=N/A speed=7.91x    frame=16918 fps=190 q=-0.0 size=N/A time=00:11:45.62 bitrate=N/A speed=7.91x    frame=17015 fps=190 q=-0.0 size=N/A time=00:11:49.66 bitrate=N/A speed=7.91x    frame=17117 fps=190 q=-0.0 size=N/A time=00:11:53.92 bitrate=N/A speed=7.91x    frame=17213 fps=190 q=-0.0 size=N/A time=00:11:57.92 bitrate=N/A speed=7.91x    frame=17313 fps=190 q=-0.0 size=N/A time=00:12:02.09 bitrate=N/A speed=7.91x    frame=17414 fps=190 q=-0.0 size=N/A time=00:12:06.30 bitrate=N/A speed=7.91x    frame=17513 fps=190 q=-0.0 size=N/A time=00:12:10.43 bitrate=N/A speed=7.91x    frame=17606 fps=190 q=-0.0 size=N/A time=00:12:14.31 bitrate=N/A speed=7.91x    frame=17709 fps=190 q=-0.0 size=N/A time=00:12:18.61 bitrate=N/A speed=7.91x    frame=17809 fps=190 q=-0.0 size=N/A time=00:12:22.78 bitrate=N/A speed=7.91x    frame=17905 fps=190 q=-0.0 size=N/A time=00:12:26.78 bitrate=N/A speed=7.91x    frame=18004 fps=190 q=-0.0 size=N/A time=00:12:30.91 bitrate=N/A speed=7.91x    frame=18097 fps=190 q=-0.0 size=N/A time=00:12:34.79 bitrate=N/A speed=7.91x    frame=18186 fps=190 q=-0.0 size=N/A time=00:12:38.50 bitrate=N/A speed= 7.9x    frame=18284 fps=190 q=-0.0 size=N/A time=00:12:42.59 bitrate=N/A speed=7.91x    frame=18389 fps=190 q=-0.0 size=N/A time=00:12:46.97 bitrate=N/A speed=7.91x    frame=18486 fps=190 q=-0.0 size=N/A time=00:12:51.02 bitrate=N/A speed=7.91x    frame=18584 fps=190 q=-0.0 size=N/A time=00:12:55.10 bitrate=N/A speed=7.91x    frame=18679 fps=190 q=-0.0 size=N/A time=00:12:59.06 bitrate=N/A speed=7.91x    frame=18780 fps=190 q=-0.0 size=N/A time=00:13:03.28 bitrate=N/A speed=7.91x    frame=18871 fps=190 q=-0.0 size=N/A time=00:13:07.07 bitrate=N/A speed=7.91x    frame=18969 fps=190 q=-0.0 size=N/A time=00:13:11.16 bitrate=N/A speed=7.91x    frame=19072 fps=190 q=-0.0 size=N/A time=00:13:15.46 bitrate=N/A speed=7.91x    frame=19162 fps=190 q=-0.0 size=N/A time=00:13:19.21 bitrate=N/A speed=7.91x    frame=19260 fps=190 q=-0.0 size=N/A time=00:13:23.30 bitrate=N/A speed= 7.9x    frame=19364 fps=190 q=-0.0 size=N/A time=00:13:27.64 bitrate=N/A speed=7.91x    frame=19465 fps=190 q=-0.0 size=N/A time=00:13:31.85 bitrate=N/A speed=7.91x    frame=19559 fps=190 q=-0.0 size=N/A time=00:13:35.77 bitrate=N/A speed=7.91x    frame=19659 fps=190 q=-0.0 size=N/A time=00:13:39.94 bitrate=N/A speed=7.91x    frame=19766 fps=190 q=-0.0 size=N/A time=00:13:44.40 bitrate=N/A speed=7.91x    frame=19860 fps=190 q=-0.0 size=N/A time=00:13:48.32 bitrate=N/A speed=7.91x    frame=19960 fps=190 q=-0.0 size=N/A time=00:13:52.49 bitrate=N/A speed=7.91x    frame=20062 fps=190 q=-0.0 size=N/A time=00:13:56.75 bitrate=N/A speed=7.91x    frame=20165 fps=190 q=-0.0 size=N/A time=00:14:01.04 bitrate=N/A speed=7.91x    frame=20257 fps=190 q=-0.0 size=N/A time=00:14:04.88 bitrate=N/A speed=7.91x    frame=20365 fps=190 q=-0.0 size=N/A time=00:14:09.39 bitrate=N/A speed=7.92x    frame=20449 fps=190 q=-0.0 size=N/A time=00:14:12.89 bitrate=N/A speed=7.91x    frame=20564 fps=190 q=-0.0 size=N/A time=00:14:17.69 bitrate=N/A speed=7.92x    frame=20665 fps=190 q=-0.0 size=N/A time=00:14:21.90 bitrate=N/A speed=7.92x    frame=20770 fps=190 q=-0.0 size=N/A time=00:14:26.28 bitrate=N/A speed=7.92x    frame=20868 fps=190 q=-0.0 size=N/A time=00:14:30.36 bitrate=N/A speed=7.92x    frame=20967 fps=190 q=-0.0 size=N/A time=00:14:34.49 bitrate=N/A speed=7.92x    frame=21076 fps=190 q=-0.0 size=N/A time=00:14:39.04 bitrate=N/A speed=7.93x    frame=21179 fps=190 q=-0.0 size=N/A time=00:14:43.34 bitrate=N/A speed=7.93x    frame=21279 fps=190 q=-0.0 size=N/A time=00:14:47.51 bitrate=N/A speed=7.93x    frame=21384 fps=190 q=-0.0 size=N/A time=00:14:51.89 bitrate=N/A speed=7.93x    frame=21481 fps=190 q=-0.0 size=N/A time=00:14:55.93 bitrate=N/A speed=7.93x    frame=21577 fps=190 q=-0.0 size=N/A time=00:14:59.94 bitrate=N/A speed=7.93x    frame=21680 fps=190 q=-0.0 size=N/A time=00:15:04.23 bitrate=N/A speed=7.93x    frame=21774 fps=190 q=-0.0 size=N/A time=00:15:08.15 bitrate=N/A speed=7.93x    frame=21877 fps=190 q=-0.0 size=N/A time=00:15:12.45 bitrate=N/A speed=7.93x    frame=21975 fps=190 q=-0.0 size=N/A time=00:15:16.54 bitrate=N/A speed=7.93x    frame=22076 fps=190 q=-0.0 size=N/A time=00:15:20.75 bitrate=N/A speed=7.93x    frame=22173 fps=190 q=-0.0 size=N/A time=00:15:24.79 bitrate=N/A speed=7.93x    frame=22268 fps=190 q=-0.0 size=N/A time=00:15:28.76 bitrate=N/A speed=7.93x    frame=22367 fps=190 q=-0.0 size=N/A time=00:15:32.89 bitrate=N/A speed=7.93x    frame=22467 fps=190 q=-0.0 size=N/A time=00:15:37.06 bitrate=N/A speed=7.93x    frame=22558 fps=190 q=-0.0 size=N/A time=00:15:40.85 bitrate=N/A speed=7.93x    frame=22647 fps=190 q=-0.0 size=N/A time=00:15:44.56 bitrate=N/A speed=7.93x    frame=22756 fps=190 q=-0.0 size=N/A time=00:15:49.11 bitrate=N/A speed=7.93x    frame=22852 fps=190 q=-0.0 size=N/A time=00:15:53.11 bitrate=N/A speed=7.93x    frame=22953 fps=190 q=-0.0 size=N/A time=00:15:57.33 bitrate=N/A speed=7.93x    frame=23057 fps=190 q=-0.0 size=N/A time=00:16:01.66 bitrate=N/A speed=7.93x    frame=23151 fps=190 q=-0.0 size=N/A time=00:16:05.58 bitrate=N/A speed=7.93x    frame=23252 fps=190 q=-0.0 size=N/A time=00:16:09.80 bitrate=N/A speed=7.93x    frame=23352 fps=190 q=-0.0 size=N/A time=00:16:13.97 bitrate=N/A speed=7.93x    frame=23457 fps=190 q=-0.0 size=N/A time=00:16:18.35 bitrate=N/A speed=7.93x    frame=23557 fps=190 q=-0.0 size=N/A time=00:16:22.52 bitrate=N/A speed=7.94x    frame=23659 fps=190 q=-0.0 size=N/A time=00:16:26.77 bitrate=N/A speed=7.94x    frame=23751 fps=190 q=-0.0 size=N/A time=00:16:30.61 bitrate=N/A speed=7.94x    frame=23856 fps=190 q=-0.0 size=N/A time=00:16:34.99 bitrate=N/A speed=7.94x    frame=23950 fps=190 q=-0.0 size=N/A time=00:16:38.91 bitrate=N/A speed=7.94x    frame=24048 fps=190 q=-0.0 size=N/A time=00:16:43.00 bitrate=N/A speed=7.94x    frame=24153 fps=190 q=-0.0 size=N/A time=00:16:47.38 bitrate=N/A speed=7.94x    frame=24245 fps=190 q=-0.0 size=N/A time=00:16:51.21 bitrate=N/A speed=7.94x    frame=24352 fps=190 q=-0.0 size=N/A time=00:16:55.68 bitrate=N/A speed=7.94x    frame=24445 fps=190 q=-0.0 size=N/A time=00:16:59.56 bitrate=N/A speed=7.94x    frame=24547 fps=190 q=-0.0 size=N/A time=00:17:03.81 bitrate=N/A speed=7.94x    frame=24641 fps=190 q=-0.0 size=N/A time=00:17:07.73 bitrate=N/A speed=7.94x    frame=24741 fps=190 q=-0.0 size=N/A time=00:17:11.90 bitrate=N/A speed=7.94x    frame=24836 fps=190 q=-0.0 size=N/A time=00:17:15.86 bitrate=N/A speed=7.94x    frame=24931 fps=190 q=-0.0 size=N/A time=00:17:19.83 bitrate=N/A speed=7.94x    frame=25031 fps=190 q=-0.0 size=N/A time=00:17:24.00 bitrate=N/A speed=7.94x    frame=25131 fps=190 q=-0.0 size=N/A time=00:17:28.17 bitrate=N/A speed=7.94x    frame=25230 fps=190 q=-0.0 size=N/A time=00:17:32.30 bitrate=N/A speed=7.94x    frame=25330 fps=190 q=-0.0 size=N/A time=00:17:36.47 bitrate=N/A speed=7.94x    frame=25434 fps=190 q=-0.0 size=N/A time=00:17:40.80 bitrate=N/A speed=7.94x    frame=25535 fps=190 q=-0.0 size=N/A time=00:17:45.02 bitrate=N/A speed=7.94x    frame=25637 fps=190 q=-0.0 size=N/A time=00:17:49.27 bitrate=N/A speed=7.94x    frame=25737 fps=190 q=-0.0 size=N/A time=00:17:53.44 bitrate=N/A speed=7.94x    frame=25833 fps=190 q=-0.0 size=N/A time=00:17:57.45 bitrate=N/A speed=7.94x    frame=25935 fps=190 q=-0.0 size=N/A time=00:18:01.70 bitrate=N/A speed=7.94x    frame=26034 fps=190 q=-0.0 size=N/A time=00:18:05.83 bitrate=N/A speed=7.94x    frame=26133 fps=190 q=-0.0 size=N/A time=00:18:09.96 bitrate=N/A speed=7.94x    frame=26233 fps=190 q=-0.0 size=N/A time=00:18:14.13 bitrate=N/A speed=7.94x    frame=26327 fps=190 q=-0.0 size=N/A time=00:18:18.05 bitrate=N/A speed=7.94x    frame=26432 fps=190 q=-0.0 size=N/A time=00:18:22.43 bitrate=N/A speed=7.94x    frame=26523 fps=190 q=-0.0 size=N/A time=00:18:26.23 bitrate=N/A speed=7.94x    frame=26629 fps=190 q=-0.0 size=N/A time=00:18:30.65 bitrate=N/A speed=7.94x    frame=26726 fps=190 q=-0.0 size=N/A time=00:18:34.69 bitrate=N/A speed=7.94x    frame=26826 fps=190 q=-0.0 size=N/A time=00:18:38.86 bitrate=N/A speed=7.94x    frame=26932 fps=191 q=-0.0 size=N/A time=00:18:43.28 bitrate=N/A speed=7.95x    frame=27027 fps=191 q=-0.0 size=N/A time=00:18:47.25 bitrate=N/A speed=7.95x    frame=27131 fps=191 q=-0.0 size=N/A time=00:18:51.58 bitrate=N/A speed=7.95x    frame=27225 fps=191 q=-0.0 size=N/A time=00:18:55.50 bitrate=N/A speed=7.95x    frame=27321 fps=190 q=-0.0 size=N/A time=00:18:59.51 bitrate=N/A speed=7.95x    frame=27426 fps=191 q=-0.0 size=N/A time=00:19:03.89 bitrate=N/A speed=7.95x    frame=27525 fps=191 q=-0.0 size=N/A time=00:19:08.02 bitrate=N/A speed=7.95x    frame=27621 fps=191 q=-0.0 size=N/A time=00:19:12.02 bitrate=N/A speed=7.95x    frame=27714 fps=191 q=-0.0 size=N/A time=00:19:15.90 bitrate=N/A speed=7.95x    frame=27813 fps=190 q=-0.0 size=N/A time=00:19:20.03 bitrate=N/A speed=7.95x    frame=27911 fps=191 q=-0.0 size=N/A time=00:19:24.12 bitrate=N/A speed=7.95x    frame=28006 fps=190 q=-0.0 size=N/A time=00:19:28.08 bitrate=N/A speed=7.94x    frame=28112 fps=191 q=-0.0 size=N/A time=00:19:32.50 bitrate=N/A speed=7.95x    frame=28216 fps=191 q=-0.0 size=N/A time=00:19:36.84 bitrate=N/A speed=7.95x    frame=28314 fps=191 q=-0.0 size=N/A time=00:19:40.92 bitrate=N/A speed=7.95x    frame=28413 fps=191 q=-0.0 size=N/A time=00:19:45.05 bitrate=N/A speed=7.95x    frame=28504 fps=191 q=-0.0 size=N/A time=00:19:48.85 bitrate=N/A speed=7.95x    frame=28602 fps=191 q=-0.0 size=N/A time=00:19:52.94 bitrate=N/A speed=7.95x    frame=28704 fps=191 q=-0.0 size=N/A time=00:19:57.19 bitrate=N/A speed=7.95x    frame=28794 fps=191 q=-0.0 size=N/A time=00:20:00.94 bitrate=N/A speed=7.95x    frame=28901 fps=191 q=-0.0 size=N/A time=00:20:05.41 bitrate=N/A speed=7.95x    frame=29000 fps=191 q=-0.0 size=N/A time=00:20:09.54 bitrate=N/A speed=7.95x    frame=29101 fps=191 q=-0.0 size=N/A time=00:20:13.75 bitrate=N/A speed=7.95x    frame=29199 fps=191 q=-0.0 size=N/A time=00:20:17.84 bitrate=N/A speed=7.95x    frame=29298 fps=191 q=-0.0 size=N/A time=00:20:21.97 bitrate=N/A speed=7.95x    frame=29394 fps=191 q=-0.0 size=N/A time=00:20:25.97 bitrate=N/A speed=7.95x    frame=29498 fps=191 q=-0.0 size=N/A time=00:20:30.31 bitrate=N/A speed=7.95x    frame=29596 fps=191 q=-0.0 size=N/A time=00:20:34.39 bitrate=N/A speed=7.95x    frame=29697 fps=191 q=-0.0 size=N/A time=00:20:38.61 bitrate=N/A speed=7.95x    frame=29797 fps=191 q=-0.0 size=N/A time=00:20:42.78 bitrate=N/A speed=7.95x    frame=29888 fps=191 q=-0.0 size=N/A time=00:20:46.57 bitrate=N/A speed=7.95x    frame=29990 fps=191 q=-0.0 size=N/A time=00:20:50.83 bitrate=N/A speed=7.95x    frame=30088 fps=191 q=-0.0 size=N/A time=00:20:54.92 bitrate=N/A speed=7.95x    frame=30188 fps=191 q=-0.0 size=N/A time=00:20:59.09 bitrate=N/A speed=7.95x    frame=30290 fps=191 q=-0.0 size=N/A time=00:21:03.34 bitrate=N/A speed=7.95x    frame=30389 fps=191 q=-0.0 size=N/A time=00:21:07.47 bitrate=N/A speed=7.95x    frame=30492 fps=191 q=-0.0 size=N/A time=00:21:11.77 bitrate=N/A speed=7.95x    frame=30588 fps=191 q=-0.0 size=N/A time=00:21:15.77 bitrate=N/A speed=7.95x    frame=30686 fps=191 q=-0.0 size=N/A time=00:21:19.86 bitrate=N/A speed=7.95x    frame=30783 fps=191 q=-0.0 size=N/A time=00:21:23.90 bitrate=N/A speed=7.95x    frame=30879 fps=191 q=-0.0 size=N/A time=00:21:27.91 bitrate=N/A speed=7.95x    frame=30975 fps=191 q=-0.0 size=N/A time=00:21:31.91 bitrate=N/A speed=7.95x    frame=31070 fps=191 q=-0.0 size=N/A time=00:21:35.87 bitrate=N/A speed=7.95x    frame=31160 fps=191 q=-0.0 size=N/A time=00:21:39.63 bitrate=N/A speed=7.95x    frame=31255 fps=191 q=-0.0 size=N/A time=00:21:43.59 bitrate=N/A speed=7.95x    frame=31343 fps=190 q=-0.0 size=N/A time=00:21:47.26 bitrate=N/A speed=7.94x    frame=31446 fps=190 q=-0.0 size=N/A time=00:21:51.56 bitrate=N/A speed=7.94x    frame=31528 fps=190 q=-0.0 size=N/A time=00:21:54.98 bitrate=N/A speed=7.94x    frame=31638 fps=190 q=-0.0 size=N/A time=00:21:59.56 bitrate=N/A speed=7.94x    frame=31726 fps=190 q=-0.0 size=N/A time=00:22:03.23 bitrate=N/A speed=7.94x    frame=31831 fps=190 q=-0.0 size=N/A time=00:22:07.61 bitrate=N/A speed=7.94x    frame=31924 fps=190 q=-0.0 size=N/A time=00:22:11.49 bitrate=N/A speed=7.94x    frame=32026 fps=190 q=-0.0 size=N/A time=00:22:15.75 bitrate=N/A speed=7.94x    frame=32121 fps=190 q=-0.0 size=N/A time=00:22:19.71 bitrate=N/A speed=7.94x    frame=32217 fps=190 q=-0.0 size=N/A time=00:22:23.71 bitrate=N/A speed=7.94x    frame=32317 fps=190 q=-0.0 size=N/A time=00:22:27.88 bitrate=N/A speed=7.94x    frame=32416 fps=190 q=-0.0 size=N/A time=00:22:32.01 bitrate=N/A speed=7.94x    frame=32518 fps=190 q=-0.0 size=N/A time=00:22:36.27 bitrate=N/A speed=7.94x    frame=32618 fps=190 q=-0.0 size=N/A time=00:22:40.44 bitrate=N/A speed=7.94x    frame=32713 fps=190 q=-0.0 size=N/A time=00:22:44.40 bitrate=N/A speed=7.94x    frame=32814 fps=190 q=-0.0 size=N/A time=00:22:48.61 bitrate=N/A speed=7.94x    frame=32912 fps=190 q=-0.0 size=N/A time=00:22:52.70 bitrate=N/A speed=7.94x    frame=33014 fps=190 q=-0.0 size=N/A time=00:22:56.95 bitrate=N/A speed=7.94x    frame=33097 fps=190 q=-0.0 size=N/A time=00:23:00.42 bitrate=N/A speed=7.94x    frame=33197 fps=190 q=-0.0 size=N/A time=00:23:04.59 bitrate=N/A speed=7.94x    frame=33294 fps=190 q=-0.0 size=N/A time=00:23:08.63 bitrate=N/A speed=7.94x    frame=33395 fps=190 q=-0.0 size=N/A time=00:23:12.84 bitrate=N/A speed=7.94x    frame=33496 fps=190 q=-0.0 size=N/A time=00:23:17.06 bitrate=N/A speed=7.94x    frame=33598 fps=190 q=-0.0 size=N/A time=00:23:21.31 bitrate=N/A speed=7.94x    frame=33690 fps=190 q=-0.0 size=N/A time=00:23:25.15 bitrate=N/A speed=7.94x    frame=33784 fps=190 q=-0.0 size=N/A time=00:23:29.07 bitrate=N/A speed=7.94x    frame=33886 fps=190 q=-0.0 size=N/A time=00:23:33.32 bitrate=N/A speed=7.94x    frame=33989 fps=190 q=-0.0 size=N/A time=00:23:37.62 bitrate=N/A speed=7.94x    [Parsed_ssim_10 @ 000002254d9358c0] SSIM Y:0.989907 (19.959707) U:0.992043 (20.992456) V:0.992433 (21.210819) All:0.990684 (20.307640)
[out#0/null @ 000002254b8e4d40] video:14630KiB audio:266260KiB subtitle:0KiB other streams:0KiB global headers:0KiB muxing overhead: unknown
frame=34047 fps=190 q=-0.0 Lsize=N/A time=00:23:40.04 bitrate=N/A speed=7.94x    
